<?xml version="1.0" encoding="UTF-8"?>
<svg id="Layer_1" data-name="Layer 1" xmlns="http://www.w3.org/2000/svg" viewBox="0 0 1000 1000">
  <defs>
    <style>
      .cls-1 {
        fill: none;
        stroke: #0069e9;
        stroke-miterlimit: 10;
        stroke-width: 2px;
      }

      .cls-2 {
        letter-spacing: 0em;
      }

      .cls-3 {
        font-family: AcuminVariableConcept, 'Acumin Variable Concept';
        font-size: 55px;
        font-variation-settings: 'wght' 194, 'wdth' 100, 'slnt' 0;
      }

      .cls-4 {
        fill: #005699;
        font-family: BrittanySignatureRegular, 'Brittany Signature';
        font-size: 220px;
      }
    </style>
  </defs>
  <path class="cls-1" d="M225.63,484.49c23.04,7.83,47.14,3.05,67.66-9.06,12.55-7.09,25.36-16.69,39.91-20.6,13.86-4.48,27.92.61,41.26,4.88,11.7,4.16,24.59,7.27,37.26,8.46,12.42,1.5,23.65-.67,35.07,1.58,2.74-.2,28.32,8.93,18.38,11.65-14.38,1.44-35.96.95-51.6,1.66-9.22-.11-17.55,1.05-22.68-6.83-4.54-7.36-9.37-21.69-6.38-30.13,5.69-9.86,34.4-10.03,45.52-11.63,9.39-.86,19.89-1.34,27.4-1.57,12.7.43,17.49-7.33,19.93-18.65,5.66-24.38,10.7-50.6,12.12-75.41,1.19-13.78,1.87-24.1,2.38-37.62.89-24.94.3-48.22-4.86-73.01-2.67-12.61-17.72-67.06-19.24-23-.91,16.25-4.69,28.97-10.74,48.92-10.57,35.6-24.19,71.82-39.87,104-3.54,7.85-7.31,15.57-11.5,23.02s-10.5,16.73-13.5,20.77c-2.31,3.1-15.21,21.02-11.77,22.9.99.31,3.09-.51,5.83-1.96,4.93-2.69,10.02-5.87,15.19-8.22,23.03-10.21,46.15-13.67,69.35-13.78,15.21-.26,27.02,4.83,30.5-14.66,3.83-22.37,7.37-57.27,6.27-73.78s-1.91-24.6-3.3-40.27c-3.7-43.31-11.94-85.12-35.67-126.53-3.7-6.67-8.47-14.01-11.98-20.01-.26-.45-.5-.89-.73-1.32-1.93-3.57-2.13-5.68-.12-5.69,6.54,1.34,14.01,7.42,19.92,11.14,9.7,6.46,19.43,13.89,28.25,21.79,51.49,43.59,101.58,109.18,112.89,182.23,1.53,11.31,1.54,21.69,1.67,35.72.19,12.4-.33,24.24-3.29,36.14-4.6,21.14-12.79,5.43-22.43-1.36-15.87-12.3-36.41-8.42-54.52-3.39-8.11,2.18-16.13,5.39-23.42,8.54-10.63,4.36-13.91,8.66-.74,13.91,3.61,1.57,13.54,5.83,10.56,10.34-1.9,2.37-9.06,2.99-13.27,3-4.87.15-10.04.63-15.35.91-10.11,1.05-21.74-3.02-7.18-10.53,7.31-3.03,15.43-1.11,23.04-.05,4.65.84,9.49,1.43,14.15,2.43,5.35,1.17,10.09,2.79,15.05,2.54,19.66-2.08,14.94-14.31,47.3-10.09,11.38,1.69,1.46,10.38-3.17,13.97-5.61,4.6-11.05,9.32-16.76,13.98-12.95,10.11-23.2,21.2-39.99,25.12-17.58,4.58-36.45,5.01-48.03-4.06-5.91-4.66-5.31-13.32,1.93-16.21,12.55-5.12,28.69,2.42,40.43,6.14,11,3.76,21.6,9.27,33.08,11.19,28.39,2.47,56.11-2.76,83.22-6.62,13.11-1.89,25.51-4.54,38.27-3.11,14.82,1.34,28.7,6.6,43.15,10.63,41.75,13.01,91.85,8.3,130.32-.91"/>
  <text class="cls-4" transform="translate(189.36 719.17)"><tspan x="0" y="0">Sah</tspan><tspan class="cls-2" x="383.02" y="0">i</tspan><tspan x="437.35" y="0">lde</tspan></text>
  <g>
    <path d="M300.83,846.35h9.04c6.28,0,10.41,2.3,10.41,8.36s-4.13,8.75-10.41,8.75h-6.81v14.52h-2.23v-31.63ZM309.29,861.59c5.6,0,8.7-2.23,8.7-6.89s-3.11-6.49-8.7-6.49h-6.23v13.38h6.23ZM311.48,862.17l9.39,15.81h-2.57l-8.94-15.17,2.12-.64Z"/>
    <path d="M330.1,846.35h18.72v1.9h-16.51v11.97h13.9v1.9h-13.9v13.94h16.99v1.91h-19.2v-31.63Z"/>
    <path d="M356.47,873.79l1.42-1.53c2.4,2.6,5.87,4.27,9.78,4.27,5.09,0,8.29-2.59,8.29-6.31,0-3.99-2.8-5.23-6.14-6.64l-4.81-2.16c-2.95-1.21-6.87-3.18-6.87-7.87s4.11-7.79,9.66-7.79c4.01,0,7.25,1.72,9.28,3.78l-1.27,1.47c-1.96-1.96-4.64-3.24-8.04-3.24-4.42,0-7.39,2.22-7.39,5.64,0,3.69,3.42,5.07,5.93,6.09l4.77,2.14c3.78,1.57,7.14,3.54,7.14,8.37s-4.15,8.52-10.58,8.52c-4.82,0-8.56-1.96-11.15-4.76Z"/>
    <path d="M394.89,848.25h-11.01v-1.9h24.24v1.9h-11.01v29.73h-2.21v-29.73Z"/>
    <path d="M423.68,846.35h2.23l11.13,31.63h-2.36l-6.3-18.62c-1.28-3.75-2.41-7.06-3.5-10.92h-.19c-1.11,3.86-2.23,7.18-3.5,10.92l-6.39,18.62h-2.24l11.13-31.63ZM417.64,865.27h14.17v1.87h-14.17v-1.87Z"/>
    <path d="M443.44,866.14v-19.79h2.23v19.54c0,8.12,3.71,10.65,7.94,10.65s8.04-2.53,8.04-10.65v-19.54h2.11v19.79c0,9.58-4.84,12.41-10.14,12.41s-10.17-2.83-10.17-12.41Z"/>
    <path d="M473.62,846.35h9.04c6.28,0,10.41,2.3,10.41,8.36s-4.13,8.75-10.41,8.75h-6.81v14.52h-2.23v-31.63ZM482.08,861.59c5.6,0,8.7-2.23,8.7-6.89s-3.11-6.49-8.7-6.49h-6.23v13.38h6.23ZM484.28,862.17l9.39,15.81h-2.57l-8.94-15.17,2.12-.64Z"/>
    <path d="M510.08,846.35h2.23l11.13,31.63h-2.36l-6.3-18.62c-1.28-3.75-2.41-7.06-3.5-10.92h-.19c-1.11,3.86-2.23,7.18-3.5,10.92l-6.39,18.62h-2.24l11.13-31.63ZM504.04,865.27h14.17v1.87h-14.17v-1.87Z"/>
    <path d="M530.02,846.35h2.35l12.32,22.37,3.37,6.25h.1c-.07-3.05-.28-6.11-.28-9.18v-19.43h2.09v31.63h-2.35l-12.32-22.37-3.37-6.25h-.1c.07,3.08.28,5.95.28,9v19.61h-2.09v-31.63Z"/>
    <path d="M567.69,848.25h-11.01v-1.9h24.24v1.9h-11.01v29.73h-2.21v-29.73Z"/>
    <path d="M646.28,846.35h8.02c6.5,0,10.35,2.4,10.35,7.68,0,3.29-1.85,5.94-5.59,6.9v.19c4.68.69,7.54,3.25,7.54,7.64,0,6.09-4.38,9.22-11.68,9.22h-8.63v-31.63ZM653.42,860.23c6.5,0,9.04-2.08,9.04-6.11s-2.85-5.88-8.78-5.88h-5.2v11.99h4.94ZM654.34,876.09c6.42,0,10.07-2.23,10.07-7.31,0-4.55-3.61-6.66-10.07-6.66h-5.86v13.97h5.86Z"/>
    <path d="M682.88,846.35h2.23l11.13,31.63h-2.36l-6.3-18.62c-1.28-3.75-2.41-7.06-3.5-10.92h-.19c-1.11,3.86-2.23,7.18-3.5,10.92l-6.39,18.62h-2.24l11.13-31.63ZM676.84,865.27h14.17v1.87h-14.17v-1.87Z"/>
    <path d="M704.02,846.35h9.04c6.28,0,10.41,2.3,10.41,8.36s-4.13,8.75-10.41,8.75h-6.81v14.52h-2.23v-31.63ZM712.48,861.59c5.6,0,8.7-2.23,8.7-6.89s-3.11-6.49-8.7-6.49h-6.23v13.38h6.23ZM714.67,862.17l9.39,15.81h-2.57l-8.94-15.17,2.12-.64Z"/>
  </g>
  <text class="cls-3" transform="translate(609 884.41) scale(.6 1)"><tspan x="0" y="0">l</tspan></text>
</svg>